<svg xmlns="http://www.w3.org/2000/svg" viewBox="0 0 512 512" width="512" height="512"><rect width="512" height="512" fill="#ffffff"/><path d="M67.0 276.5 C 80.3 208.2, 112.2 135.7, 132.2 182.6 C 146.8 221.0, 114.9 314.9, 100.2 285.0 C 89.6 255.1, 144.2 186.9, 185.4 176.2 C 221.4 167.7, 216.1 272.2, 190.8 304.2 C 170.8 327.7, 182.8 229.5, 244.0 206.1 C 293.3 189.0, 285.3 306.3, 257.3 321.3 C 236.0 331.9, 269.3 216.7, 329.2 184.7 C 377.1 163.4, 391.8 263.7, 361.2 304.2 C 341.2 329.8, 373.1 208.2, 446.4 165.5" fill="none" stroke="#39ff14" stroke-width="29.7" stroke-linecap="round" stroke-linejoin="round" style="mix-blend-mode:multiply"/></svg>